<?xml version="1.0" standalone="no"?>
<svg viewBox="0 0 200 200" xmlns="http://www.w3.org/2000/svg">
  <path fill="#6B5CD4" d="M39.2,-68.6C52.4,-60.2,65.9,-53,75.6,-41.8C85.3,-30.6,91.3,-15.3,92.1,0.5C92.9,16.2,88.6,32.5,79.6,44.9C70.6,57.3,56.8,66,42.8,72.3C28.7,78.7,14.4,82.7,0.9,81.2C-12.6,79.7,-25.3,72.7,-38.5,65.9C-51.7,59.1,-65.5,52.4,-72.7,41.4C-80,30.5,-80.7,15.2,-79.4,0.7C-78.1,-13.8,-74.8,-27.5,-68.4,-39.8C-61.9,-52.2,-52.3,-63.1,-40.4,-72.2C-28.5,-81.4,-14.2,-88.8,-0.6,-87.7C13,-86.7,25.9,-77,39.2,-68.6Z" transform="translate(100 100)" />
</svg>
